<svg width="117" height="56" viewBox="0 0 117 56" fill="none" xmlns="http://www.w3.org/2000/svg">
<rect width="117" height="56" rx="6" fill="#FF8B42"/>
<path d="M37.524 32.528H41.284V34H35.7V22.88H37.524V32.528ZM47.8814 34.112C46.8467 34.112 45.892 33.872 45.0174 33.392C44.1534 32.9013 43.4654 32.224 42.9534 31.36C42.452 30.4853 42.2014 29.504 42.2014 28.416C42.2014 27.328 42.452 26.352 42.9534 25.488C43.4654 24.624 44.1534 23.952 45.0174 23.472C45.892 22.9813 46.8467 22.736 47.8814 22.736C48.9267 22.736 49.8814 22.9813 50.7454 23.472C51.62 23.952 52.308 24.624 52.8094 25.488C53.3107 26.352 53.5614 27.328 53.5614 28.416C53.5614 29.504 53.3107 30.4853 52.8094 31.36C52.308 32.224 51.62 32.9013 50.7454 33.392C49.8814 33.872 48.9267 34.112 47.8814 34.112ZM47.8814 32.528C48.6174 32.528 49.2734 32.3627 49.8494 32.032C50.4254 31.6907 50.8734 31.2107 51.1934 30.592C51.524 29.9627 51.6894 29.2373 51.6894 28.416C51.6894 27.5947 51.524 26.8747 51.1934 26.256C50.8734 25.6373 50.4254 25.1627 49.8494 24.832C49.2734 24.5013 48.6174 24.336 47.8814 24.336C47.1454 24.336 46.4894 24.5013 45.9134 24.832C45.3374 25.1627 44.884 25.6373 44.5534 26.256C44.2334 26.8747 44.0734 27.5947 44.0734 28.416C44.0734 29.2373 44.2334 29.9627 44.5534 30.592C44.884 31.2107 45.3374 31.6907 45.9134 32.032C46.4894 32.3627 47.1454 32.528 47.8814 32.528ZM63.4043 26.08C63.1163 25.5253 62.7163 25.1093 62.2043 24.832C61.6923 24.544 61.1003 24.4 60.4283 24.4C59.6923 24.4 59.0363 24.5653 58.4603 24.896C57.8843 25.2267 57.4309 25.696 57.1003 26.304C56.7803 26.912 56.6203 27.616 56.6203 28.416C56.6203 29.216 56.7803 29.9253 57.1003 30.544C57.4309 31.152 57.8843 31.6213 58.4603 31.952C59.0363 32.2827 59.6923 32.448 60.4283 32.448C61.4203 32.448 62.2256 32.1707 62.8443 31.616C63.4629 31.0613 63.8416 30.3093 63.9803 29.36H59.8043V27.904H65.9323V29.328C65.8149 30.192 65.5056 30.9867 65.0043 31.712C64.5136 32.4373 63.8683 33.0187 63.0683 33.456C62.2789 33.8827 61.3989 34.096 60.4283 34.096C59.3829 34.096 58.4283 33.856 57.5643 33.376C56.7003 32.8853 56.0123 32.208 55.5003 31.344C54.9989 30.48 54.7483 29.504 54.7483 28.416C54.7483 27.328 54.9989 26.352 55.5003 25.488C56.0123 24.624 56.7003 23.952 57.5643 23.472C58.4389 22.9813 59.3936 22.736 60.4283 22.736C61.6123 22.736 62.6629 23.0293 63.5803 23.616C64.5083 24.192 65.1803 25.0133 65.5963 26.08H63.4043ZM69.5553 22.88V34H67.7313V22.88H69.5553ZM81.086 34H79.262L73.774 25.696V34H71.95V22.864H73.774L79.262 31.152V22.864H81.086V34Z" fill="white"/>
</svg>
