<svg width="117" height="56" viewBox="0 0 117 56" fill="none" xmlns="http://www.w3.org/2000/svg">
<rect width="117" height="56" rx="6" fill="#FF8B42"/>
<path d="M33.864 34.112C33.1173 34.112 32.4453 33.984 31.848 33.728C31.2507 33.4613 30.7813 33.088 30.44 32.608C30.0987 32.128 29.928 31.568 29.928 30.928H31.88C31.9227 31.408 32.1093 31.8027 32.44 32.112C32.7813 32.4213 33.256 32.576 33.864 32.576C34.4933 32.576 34.984 32.4267 35.336 32.128C35.688 31.8187 35.864 31.424 35.864 30.944C35.864 30.5707 35.752 30.2667 35.528 30.032C35.3147 29.7973 35.0427 29.616 34.712 29.488C34.392 29.36 33.944 29.2213 33.368 29.072C32.6427 28.88 32.0507 28.688 31.592 28.496C31.144 28.2933 30.76 27.984 30.44 27.568C30.12 27.152 29.96 26.5973 29.96 25.904C29.96 25.264 30.12 24.704 30.44 24.224C30.76 23.744 31.208 23.376 31.784 23.12C32.36 22.864 33.0267 22.736 33.784 22.736C34.8613 22.736 35.7413 23.008 36.424 23.552C37.1173 24.0853 37.5013 24.8213 37.576 25.76H35.56C35.528 25.3547 35.336 25.008 34.984 24.72C34.632 24.432 34.168 24.288 33.592 24.288C33.0693 24.288 32.6427 24.4213 32.312 24.688C31.9813 24.9547 31.816 25.3387 31.816 25.84C31.816 26.1813 31.9173 26.464 32.12 26.688C32.3333 26.9013 32.6 27.072 32.92 27.2C33.24 27.328 33.6773 27.4667 34.232 27.616C34.968 27.8187 35.5653 28.0213 36.024 28.224C36.4933 28.4267 36.888 28.7413 37.208 29.168C37.5387 29.584 37.704 30.144 37.704 30.848C37.704 31.4133 37.5493 31.9467 37.24 32.448C36.9413 32.9493 36.4987 33.3547 35.912 33.664C35.336 33.9627 34.6533 34.112 33.864 34.112ZM41.6803 22.88V34H39.8563V22.88H41.6803ZM52.123 26.08C51.835 25.5253 51.435 25.1093 50.923 24.832C50.411 24.544 49.819 24.4 49.147 24.4C48.411 24.4 47.755 24.5653 47.179 24.896C46.603 25.2267 46.1497 25.696 45.819 26.304C45.499 26.912 45.339 27.616 45.339 28.416C45.339 29.216 45.499 29.9253 45.819 30.544C46.1497 31.152 46.603 31.6213 47.179 31.952C47.755 32.2827 48.411 32.448 49.147 32.448C50.139 32.448 50.9443 32.1707 51.563 31.616C52.1817 31.0613 52.5603 30.3093 52.699 29.36H48.523V27.904H54.651V29.328C54.5337 30.192 54.2243 30.9867 53.723 31.712C53.2323 32.4373 52.587 33.0187 51.787 33.456C50.9977 33.8827 50.1177 34.096 49.147 34.096C48.1017 34.096 47.147 33.856 46.283 33.376C45.419 32.8853 44.731 32.208 44.219 31.344C43.7177 30.48 43.467 29.504 43.467 28.416C43.467 27.328 43.7177 26.352 44.219 25.488C44.731 24.624 45.419 23.952 46.283 23.472C47.1577 22.9813 48.1123 22.736 49.147 22.736C50.331 22.736 51.3817 23.0293 52.299 23.616C53.227 24.192 53.899 25.0133 54.315 26.08H52.123ZM65.586 34H63.762L58.274 25.696V34H56.45V22.864H58.274L63.762 31.152V22.864H65.586V34ZM69.7893 22.88V29.968C69.7893 30.8107 70.0079 31.4453 70.4453 31.872C70.8933 32.2987 71.5119 32.512 72.3013 32.512C73.1013 32.512 73.7199 32.2987 74.1573 31.872C74.6053 31.4453 74.8293 30.8107 74.8293 29.968V22.88H76.6533V29.936C76.6533 30.8427 76.4559 31.6107 76.0613 32.24C75.6666 32.8693 75.1386 33.3387 74.4773 33.648C73.8159 33.9573 73.0853 34.112 72.2853 34.112C71.4853 34.112 70.7546 33.9573 70.0933 33.648C69.4426 33.3387 68.9253 32.8693 68.5413 32.24C68.1573 31.6107 67.9653 30.8427 67.9653 29.936V22.88H69.7893ZM86.8041 26.192C86.8041 26.7573 86.6708 27.2907 86.4041 27.792C86.1375 28.2933 85.7108 28.704 85.1241 29.024C84.5375 29.3333 83.7855 29.488 82.8681 29.488H80.8521V34H79.0281V22.88H82.8681C83.7215 22.88 84.4415 23.0293 85.0281 23.328C85.6255 23.616 86.0681 24.0107 86.3561 24.512C86.6548 25.0133 86.8041 25.5733 86.8041 26.192ZM82.8681 28C83.5615 28 84.0788 27.8453 84.4201 27.536C84.7615 27.216 84.9321 26.768 84.9321 26.192C84.9321 24.976 84.2441 24.368 82.8681 24.368H80.8521V28H82.8681Z" fill="white"/>
</svg>
