<svg width="184" height="23" viewBox="0 0 184 23" fill="none" xmlns="http://www.w3.org/2000/svg">
<path d="M7.764 2.456C9.81733 2.456 11.6187 2.85733 13.168 3.66C14.736 4.46267 15.94 5.61067 16.78 7.104C17.6387 8.57867 18.068 10.296 18.068 12.256C18.068 14.216 17.6387 15.9333 16.78 17.408C15.94 18.864 14.736 19.9933 13.168 20.796C11.6187 21.5987 9.81733 22 7.764 22H0.932V2.456H7.764ZM7.624 18.668C9.67733 18.668 11.264 18.108 12.384 16.988C13.504 15.868 14.064 14.2907 14.064 12.256C14.064 10.2213 13.504 8.63467 12.384 7.496C11.264 6.33867 9.67733 5.76 7.624 5.76H4.852V18.668H7.624ZM27.8903 22.252C26.397 22.252 25.053 21.9253 23.8583 21.272C22.6636 20.6 21.721 19.6573 21.0303 18.444C20.3583 17.2307 20.0223 15.8307 20.0223 14.244C20.0223 12.6573 20.3676 11.2573 21.0583 10.044C21.7676 8.83067 22.729 7.89733 23.9423 7.244C25.1556 6.572 26.509 6.236 28.0023 6.236C29.4956 6.236 30.849 6.572 32.0623 7.244C33.2756 7.89733 34.2276 8.83067 34.9183 10.044C35.6276 11.2573 35.9823 12.6573 35.9823 14.244C35.9823 15.8307 35.6183 17.2307 34.8903 18.444C34.181 19.6573 33.2103 20.6 31.9783 21.272C30.765 21.9253 29.4023 22.252 27.8903 22.252ZM27.8903 18.836C28.5996 18.836 29.2623 18.668 29.8783 18.332C30.513 17.9773 31.017 17.4547 31.3903 16.764C31.7636 16.0733 31.9503 15.2333 31.9503 14.244C31.9503 12.7693 31.5583 11.64 30.7743 10.856C30.009 10.0533 29.0663 9.652 27.9463 9.652C26.8263 9.652 25.8836 10.0533 25.1183 10.856C24.3716 11.64 23.9983 12.7693 23.9983 14.244C23.9983 15.7187 24.3623 16.8573 25.0903 17.66C25.837 18.444 26.7703 18.836 27.8903 18.836ZM37.8498 14.244C37.8498 12.6387 38.1764 11.2387 38.8298 10.044C39.4831 8.83067 40.3884 7.89733 41.5458 7.244C42.7031 6.572 44.0284 6.236 45.5218 6.236C47.4444 6.236 49.0311 6.72133 50.2818 7.692C51.5511 8.644 52.4004 9.988 52.8298 11.724H48.6018C48.3778 11.052 47.9951 10.5293 47.4538 10.156C46.9311 9.764 46.2778 9.568 45.4938 9.568C44.3738 9.568 43.4871 9.97867 42.8338 10.8C42.1804 11.6027 41.8538 12.7507 41.8538 14.244C41.8538 15.7187 42.1804 16.8667 42.8338 17.688C43.4871 18.4907 44.3738 18.892 45.4938 18.892C47.0804 18.892 48.1164 18.1827 48.6018 16.764H52.8298C52.4004 18.444 51.5511 19.7787 50.2818 20.768C49.0124 21.7573 47.4258 22.252 45.5218 22.252C44.0284 22.252 42.7031 21.9253 41.5458 21.272C40.3884 20.6 39.4831 19.6667 38.8298 18.472C38.1764 17.2587 37.8498 15.8493 37.8498 14.244ZM60.2655 9.708V17.212C60.2655 17.7347 60.3869 18.1173 60.6295 18.36C60.8909 18.584 61.3202 18.696 61.9175 18.696H63.7375V22H61.2735C57.9695 22 56.3175 20.3947 56.3175 17.184V9.708H54.4695V6.488H56.3175V2.652H60.2655V6.488H63.7375V9.708H60.2655ZM73.445 22.252C71.9517 22.252 70.6077 21.9253 69.413 21.272C68.2183 20.6 67.2757 19.6573 66.585 18.444C65.913 17.2307 65.577 15.8307 65.577 14.244C65.577 12.6573 65.9223 11.2573 66.613 10.044C67.3223 8.83067 68.2837 7.89733 69.497 7.244C70.7103 6.572 72.0637 6.236 73.557 6.236C75.0503 6.236 76.4037 6.572 77.617 7.244C78.8303 7.89733 79.7823 8.83067 80.473 10.044C81.1823 11.2573 81.537 12.6573 81.537 14.244C81.537 15.8307 81.173 17.2307 80.445 18.444C79.7357 19.6573 78.765 20.6 77.533 21.272C76.3197 21.9253 74.957 22.252 73.445 22.252ZM73.445 18.836C74.1543 18.836 74.817 18.668 75.433 18.332C76.0677 17.9773 76.5717 17.4547 76.945 16.764C77.3183 16.0733 77.505 15.2333 77.505 14.244C77.505 12.7693 77.113 11.64 76.329 10.856C75.5637 10.0533 74.621 9.652 73.501 9.652C72.381 9.652 71.4383 10.0533 70.673 10.856C69.9263 11.64 69.553 12.7693 69.553 14.244C69.553 15.7187 69.917 16.8573 70.645 17.66C71.3917 18.444 72.325 18.836 73.445 18.836ZM88.3325 8.896C88.8365 8.07467 89.4898 7.43067 90.2925 6.964C91.1138 6.49733 92.0471 6.264 93.0925 6.264V10.38H92.0565C90.8245 10.38 89.8911 10.6693 89.2565 11.248C88.6405 11.8267 88.3325 12.8347 88.3325 14.272V22H84.4125V6.488H88.3325V8.896ZM116.013 8.336C115.565 7.51467 114.949 6.88933 114.165 6.46C113.381 6.03067 112.466 5.816 111.421 5.816C110.263 5.816 109.237 6.07733 108.341 6.6C107.445 7.12267 106.745 7.86933 106.241 8.84C105.737 9.81067 105.485 10.9307 105.485 12.2C105.485 13.5067 105.737 14.6453 106.241 15.616C106.763 16.5867 107.482 17.3333 108.397 17.856C109.311 18.3787 110.375 18.64 111.589 18.64C113.082 18.64 114.305 18.248 115.257 17.464C116.209 16.6613 116.834 15.5507 117.133 14.132H110.413V11.136H120.997V14.552C120.735 15.9147 120.175 17.1747 119.317 18.332C118.458 19.4893 117.347 20.4227 115.985 21.132C114.641 21.8227 113.129 22.168 111.449 22.168C109.563 22.168 107.855 21.748 106.325 20.908C104.813 20.0493 103.618 18.864 102.741 17.352C101.882 15.84 101.453 14.1227 101.453 12.2C101.453 10.2773 101.882 8.56 102.741 7.048C103.618 5.51733 104.813 4.332 106.325 3.492C107.855 2.63333 109.554 2.204 111.421 2.204C113.623 2.204 115.537 2.74533 117.161 3.828C118.785 4.892 119.905 6.39467 120.521 8.336H116.013ZM138.541 6.488V22H134.593V20.04C134.089 20.712 133.426 21.244 132.605 21.636C131.802 22.0093 130.925 22.196 129.973 22.196C128.76 22.196 127.686 21.944 126.753 21.44C125.82 20.9173 125.082 20.1613 124.541 19.172C124.018 18.164 123.757 16.9693 123.757 15.588V6.488H127.677V15.028C127.677 16.26 127.985 17.212 128.601 17.884C129.217 18.5373 130.057 18.864 131.121 18.864C132.204 18.864 133.053 18.5373 133.669 17.884C134.285 17.212 134.593 16.26 134.593 15.028V6.488H138.541ZM144.397 4.64C143.706 4.64 143.127 4.42533 142.661 3.996C142.213 3.548 141.989 2.99733 141.989 2.344C141.989 1.69067 142.213 1.14933 142.661 0.719999C143.127 0.271999 143.706 0.0479989 144.397 0.0479989C145.087 0.0479989 145.657 0.271999 146.105 0.719999C146.571 1.14933 146.805 1.69067 146.805 2.344C146.805 2.99733 146.571 3.548 146.105 3.996C145.657 4.42533 145.087 4.64 144.397 4.64ZM146.329 6.488V22H142.409V6.488H146.329ZM149.194 14.188C149.194 12.62 149.502 11.2293 150.118 10.016C150.752 8.80267 151.611 7.86933 152.694 7.216C153.776 6.56267 154.98 6.236 156.306 6.236C157.314 6.236 158.275 6.46 159.19 6.908C160.104 7.33733 160.832 7.916 161.374 8.644V1.28H165.35V22H161.374V19.704C160.888 20.4693 160.207 21.0853 159.33 21.552C158.452 22.0187 157.435 22.252 156.278 22.252C154.971 22.252 153.776 21.916 152.694 21.244C151.611 20.572 150.752 19.6293 150.118 18.416C149.502 17.184 149.194 15.7747 149.194 14.188ZM161.402 14.244C161.402 13.292 161.215 12.48 160.842 11.808C160.468 11.1173 159.964 10.5947 159.33 10.24C158.695 9.86667 158.014 9.68 157.286 9.68C156.558 9.68 155.886 9.85733 155.27 10.212C154.654 10.5667 154.15 11.0893 153.758 11.78C153.384 12.452 153.198 13.2547 153.198 14.188C153.198 15.1213 153.384 15.9427 153.758 16.652C154.15 17.3427 154.654 17.8747 155.27 18.248C155.904 18.6213 156.576 18.808 157.286 18.808C158.014 18.808 158.695 18.6307 159.33 18.276C159.964 17.9027 160.468 17.38 160.842 16.708C161.215 16.0173 161.402 15.196 161.402 14.244ZM183.598 13.908C183.598 14.468 183.561 14.972 183.486 15.42H172.146C172.239 16.54 172.631 17.4173 173.322 18.052C174.013 18.6867 174.862 19.004 175.87 19.004C177.326 19.004 178.362 18.3787 178.978 17.128H183.206C182.758 18.6213 181.899 19.8533 180.63 20.824C179.361 21.776 177.802 22.252 175.954 22.252C174.461 22.252 173.117 21.9253 171.922 21.272C170.746 20.6 169.822 19.6573 169.15 18.444C168.497 17.2307 168.17 15.8307 168.17 14.244C168.17 12.6387 168.497 11.2293 169.15 10.016C169.803 8.80267 170.718 7.86933 171.894 7.216C173.07 6.56267 174.423 6.236 175.954 6.236C177.429 6.236 178.745 6.55333 179.902 7.188C181.078 7.82267 181.983 8.728 182.618 9.904C183.271 11.0613 183.598 12.396 183.598 13.908ZM179.538 12.788C179.519 11.78 179.155 10.9773 178.446 10.38C177.737 9.764 176.869 9.456 175.842 9.456C174.871 9.456 174.05 9.75467 173.378 10.352C172.725 10.9307 172.323 11.7427 172.174 12.788H179.538Z" fill="#FF8B42"/>
</svg>
