<svg width="132" height="132" viewBox="0 0 132 132" fill="none" xmlns="http://www.w3.org/2000/svg">
<g clip-path="url(#clip0_2_781)">
<circle cx="2.5" cy="2.5" r="2.5" fill="#D2D6DB"/>
<circle cx="15.5" cy="2.5" r="2.5" fill="#D2D6DB"/>
<circle cx="28.5" cy="2.5" r="2.5" fill="#D2D6DB"/>
<circle cx="41.5" cy="2.5" r="2.5" fill="#D2D6DB"/>
<circle cx="54.5" cy="2.5" r="2.5" fill="#D2D6DB"/>
<circle cx="67.5" cy="2.5" r="2.5" fill="#D2D6DB"/>
<circle cx="80.5" cy="2.5" r="2.5" fill="#D2D6DB"/>
<circle cx="93.5" cy="2.5" r="2.5" fill="#D2D6DB"/>
<circle cx="106.5" cy="2.5" r="2.5" fill="#D2D6DB"/>
<circle cx="119.5" cy="2.5" r="2.5" fill="#D2D6DB"/>
<circle cx="132.5" cy="2.5" r="2.5" fill="#D2D6DB"/>
<circle cx="2.5" cy="15.5" r="2.5" fill="#D2D6DB"/>
<circle cx="15.5" cy="15.5" r="2.5" fill="#D2D6DB"/>
<circle cx="28.5" cy="15.5" r="2.5" fill="#D2D6DB"/>
<circle cx="41.5" cy="15.5" r="2.5" fill="#D2D6DB"/>
<circle cx="54.5" cy="15.5" r="2.5" fill="#D2D6DB"/>
<circle cx="67.5" cy="15.5" r="2.5" fill="#D2D6DB"/>
<circle cx="80.5" cy="15.5" r="2.5" fill="#D2D6DB"/>
<circle cx="93.5" cy="15.5" r="2.5" fill="#D2D6DB"/>
<circle cx="106.5" cy="15.5" r="2.5" fill="#D2D6DB"/>
<circle cx="119.5" cy="15.5" r="2.5" fill="#D2D6DB"/>
<circle cx="132.5" cy="15.5" r="2.5" fill="#D2D6DB"/>
<circle cx="2.5" cy="28.5" r="2.5" fill="#D2D6DB"/>
<circle cx="15.5" cy="28.5" r="2.5" fill="#D2D6DB"/>
<circle cx="28.5" cy="28.5" r="2.5" fill="#D2D6DB"/>
<circle cx="41.5" cy="28.5" r="2.5" fill="#D2D6DB"/>
<circle cx="54.5" cy="28.5" r="2.5" fill="#D2D6DB"/>
<circle cx="67.5" cy="28.5" r="2.5" fill="#D2D6DB"/>
<circle cx="80.5" cy="28.5" r="2.5" fill="#D2D6DB"/>
<circle cx="93.5" cy="28.5" r="2.5" fill="#D2D6DB"/>
<circle cx="106.5" cy="28.5" r="2.5" fill="#D2D6DB"/>
<circle cx="119.5" cy="28.5" r="2.5" fill="#D2D6DB"/>
<circle cx="132.5" cy="28.5" r="2.5" fill="#D2D6DB"/>
<circle cx="2.5" cy="41.5" r="2.5" fill="#D2D6DB"/>
<circle cx="15.5" cy="41.5" r="2.5" fill="#D2D6DB"/>
<circle cx="28.5" cy="41.5" r="2.5" fill="#D2D6DB"/>
<circle cx="41.5" cy="41.5" r="2.5" fill="#D2D6DB"/>
<circle cx="54.5" cy="41.5" r="2.5" fill="#D2D6DB"/>
<circle cx="67.5" cy="41.5" r="2.5" fill="#D2D6DB"/>
<circle cx="80.5" cy="41.5" r="2.5" fill="#D2D6DB"/>
<circle cx="93.5" cy="41.5" r="2.5" fill="#D2D6DB"/>
<circle cx="106.5" cy="41.5" r="2.5" fill="#D2D6DB"/>
<circle cx="119.5" cy="41.5" r="2.5" fill="#D2D6DB"/>
<circle cx="132.5" cy="41.5" r="2.5" fill="#D2D6DB"/>
<circle cx="2.5" cy="54.5" r="2.5" fill="#D2D6DB"/>
<circle cx="15.5" cy="54.5" r="2.5" fill="#D2D6DB"/>
<circle cx="28.5" cy="54.5" r="2.5" fill="#D2D6DB"/>
<circle cx="41.5" cy="54.5" r="2.5" fill="#D2D6DB"/>
<circle cx="54.5" cy="54.5" r="2.5" fill="#D2D6DB"/>
<circle cx="67.5" cy="54.5" r="2.5" fill="#D2D6DB"/>
<circle cx="80.5" cy="54.5" r="2.5" fill="#D2D6DB"/>
<circle cx="93.5" cy="54.5" r="2.5" fill="#D2D6DB"/>
<circle cx="106.5" cy="54.5" r="2.5" fill="#D2D6DB"/>
<circle cx="119.5" cy="54.5" r="2.5" fill="#D2D6DB"/>
<circle cx="132.5" cy="54.5" r="2.5" fill="#D2D6DB"/>
<circle cx="2.5" cy="67.5" r="2.5" fill="#D2D6DB"/>
<circle cx="15.5" cy="67.5" r="2.5" fill="#D2D6DB"/>
<circle cx="28.5" cy="67.5" r="2.5" fill="#D2D6DB"/>
<circle cx="41.5" cy="67.5" r="2.5" fill="#D2D6DB"/>
<circle cx="54.5" cy="67.5" r="2.5" fill="#D2D6DB"/>
<circle cx="67.5" cy="67.5" r="2.5" fill="#D2D6DB"/>
<circle cx="80.5" cy="67.5" r="2.5" fill="#D2D6DB"/>
<circle cx="93.5" cy="67.5" r="2.5" fill="#D2D6DB"/>
<circle cx="106.5" cy="67.5" r="2.5" fill="#D2D6DB"/>
<circle cx="119.5" cy="67.5" r="2.5" fill="#D2D6DB"/>
<circle cx="132.5" cy="67.5" r="2.5" fill="#D2D6DB"/>
<circle cx="2.5" cy="80.5" r="2.5" fill="#D2D6DB"/>
<circle cx="15.5" cy="80.5" r="2.5" fill="#D2D6DB"/>
<circle cx="28.5" cy="80.5" r="2.5" fill="#D2D6DB"/>
<circle cx="41.5" cy="80.5" r="2.5" fill="#D2D6DB"/>
<circle cx="54.5" cy="80.5" r="2.5" fill="#D2D6DB"/>
<circle cx="67.5" cy="80.5" r="2.5" fill="#D2D6DB"/>
<circle cx="80.5" cy="80.5" r="2.5" fill="#D2D6DB"/>
<circle cx="93.5" cy="80.5" r="2.5" fill="#D2D6DB"/>
<circle cx="106.5" cy="80.5" r="2.5" fill="#D2D6DB"/>
<circle cx="119.5" cy="80.5" r="2.5" fill="#D2D6DB"/>
<circle cx="132.5" cy="80.5" r="2.5" fill="#D2D6DB"/>
<circle cx="2.5" cy="93.5" r="2.5" fill="#D2D6DB"/>
<circle cx="15.5" cy="93.5" r="2.5" fill="#D2D6DB"/>
<circle cx="28.5" cy="93.5" r="2.5" fill="#D2D6DB"/>
<circle cx="41.5" cy="93.5" r="2.5" fill="#D2D6DB"/>
<circle cx="54.5" cy="93.5" r="2.5" fill="#D2D6DB"/>
<circle cx="67.5" cy="93.5" r="2.5" fill="#D2D6DB"/>
<circle cx="80.5" cy="93.5" r="2.5" fill="#D2D6DB"/>
<circle cx="93.5" cy="93.5" r="2.5" fill="#D2D6DB"/>
<circle cx="106.5" cy="93.5" r="2.5" fill="#D2D6DB"/>
<circle cx="119.5" cy="93.5" r="2.5" fill="#D2D6DB"/>
<circle cx="132.5" cy="93.5" r="2.5" fill="#D2D6DB"/>
<circle cx="2.5" cy="106.5" r="2.5" fill="#D2D6DB"/>
<circle cx="15.5" cy="106.5" r="2.5" fill="#D2D6DB"/>
<circle cx="28.5" cy="106.5" r="2.5" fill="#D2D6DB"/>
<circle cx="41.5" cy="106.5" r="2.5" fill="#D2D6DB"/>
<circle cx="54.5" cy="106.5" r="2.5" fill="#D2D6DB"/>
<circle cx="67.5" cy="106.5" r="2.5" fill="#D2D6DB"/>
<circle cx="80.5" cy="106.5" r="2.5" fill="#D2D6DB"/>
<circle cx="93.5" cy="106.5" r="2.5" fill="#D2D6DB"/>
<circle cx="106.5" cy="106.5" r="2.5" fill="#D2D6DB"/>
<circle cx="119.5" cy="106.5" r="2.5" fill="#D2D6DB"/>
<circle cx="132.5" cy="106.5" r="2.5" fill="#D2D6DB"/>
<circle cx="2.5" cy="119.5" r="2.5" fill="#D2D6DB"/>
<circle cx="15.5" cy="119.5" r="2.5" fill="#D2D6DB"/>
<circle cx="28.5" cy="119.5" r="2.5" fill="#D2D6DB"/>
<circle cx="41.5" cy="119.5" r="2.5" fill="#D2D6DB"/>
<circle cx="54.5" cy="119.5" r="2.5" fill="#D2D6DB"/>
<circle cx="67.5" cy="119.5" r="2.5" fill="#D2D6DB"/>
<circle cx="80.5" cy="119.5" r="2.5" fill="#D2D6DB"/>
<circle cx="93.5" cy="119.5" r="2.5" fill="#D2D6DB"/>
<circle cx="106.5" cy="119.5" r="2.5" fill="#D2D6DB"/>
<circle cx="119.5" cy="119.5" r="2.5" fill="#D2D6DB"/>
<circle cx="132.5" cy="119.5" r="2.5" fill="#D2D6DB"/>
<circle cx="2.5" cy="132.5" r="2.5" fill="#D2D6DB"/>
<circle cx="15.5" cy="132.5" r="2.5" fill="#D2D6DB"/>
<circle cx="28.5" cy="132.5" r="2.5" fill="#D2D6DB"/>
<circle cx="41.5" cy="132.5" r="2.5" fill="#D2D6DB"/>
<circle cx="54.5" cy="132.5" r="2.5" fill="#D2D6DB"/>
<circle cx="67.5" cy="132.5" r="2.5" fill="#D2D6DB"/>
<circle cx="80.5" cy="132.5" r="2.5" fill="#D2D6DB"/>
<circle cx="93.5" cy="132.5" r="2.5" fill="#D2D6DB"/>
<circle cx="106.5" cy="132.5" r="2.5" fill="#D2D6DB"/>
<circle cx="119.5" cy="132.5" r="2.5" fill="#D2D6DB"/>
<circle cx="132.5" cy="132.5" r="2.5" fill="#D2D6DB"/>
</g>
<defs>
<clipPath id="clip0_2_781">
<rect width="132" height="132" fill="white"/>
</clipPath>
</defs>
</svg>
