<svg width="243" height="56" viewBox="0 0 243 56" fill="none" xmlns="http://www.w3.org/2000/svg">
<rect width="243" height="56" rx="6" fill="#FF8B42"/>
<path d="M56.912 22.88V34H55.088V26.384L51.696 34H50.432L47.024 26.384V34H45.2V22.88H47.168L51.072 31.6L54.96 22.88H56.912ZM58.7014 29.552C58.7014 28.6667 58.8827 27.8827 59.2454 27.2C59.6187 26.5173 60.12 25.9893 60.7494 25.616C61.3894 25.232 62.0934 25.04 62.8614 25.04C63.5547 25.04 64.1574 25.1787 64.6694 25.456C65.192 25.7227 65.608 26.0587 65.9174 26.464V25.184H67.7574V34H65.9174V32.688C65.608 33.104 65.1867 33.4507 64.6534 33.728C64.12 34.0053 63.512 34.144 62.8294 34.144C62.072 34.144 61.3787 33.952 60.7494 33.568C60.12 33.1733 59.6187 32.6293 59.2454 31.936C58.8827 31.232 58.7014 30.4373 58.7014 29.552ZM65.9174 29.584C65.9174 28.976 65.7894 28.448 65.5334 28C65.288 27.552 64.9627 27.2107 64.5574 26.976C64.152 26.7413 63.7147 26.624 63.2454 26.624C62.776 26.624 62.3387 26.7413 61.9334 26.976C61.528 27.2 61.1974 27.536 60.9414 27.984C60.696 28.4213 60.5734 28.944 60.5734 29.552C60.5734 30.16 60.696 30.6933 60.9414 31.152C61.1974 31.6107 61.528 31.9627 61.9334 32.208C62.3494 32.4427 62.7867 32.56 63.2454 32.56C63.7147 32.56 64.152 32.4427 64.5574 32.208C64.9627 31.9733 65.288 31.632 65.5334 31.184C65.7894 30.7253 65.9174 30.192 65.9174 29.584ZM73.6411 29.6L77.7051 34H75.2411L71.9771 30.208V34H70.1531V22.16H71.9771V29.04L75.1771 25.184H77.7051L73.6411 29.6ZM87.0925 29.376C87.0925 29.7067 87.0712 30.0053 87.0285 30.272H80.2925C80.3458 30.976 80.6072 31.5413 81.0765 31.968C81.5458 32.3947 82.1218 32.608 82.8045 32.608C83.7858 32.608 84.4792 32.1973 84.8845 31.376H86.8525C86.5858 32.1867 86.1005 32.8533 85.3965 33.376C84.7032 33.888 83.8392 34.144 82.8045 34.144C81.9618 34.144 81.2045 33.9573 80.5325 33.584C79.8712 33.2 79.3485 32.6667 78.9645 31.984C78.5912 31.2907 78.4045 30.4907 78.4045 29.584C78.4045 28.6773 78.5858 27.8827 78.9485 27.2C79.3218 26.5067 79.8392 25.9733 80.5005 25.6C81.1725 25.2267 81.9405 25.04 82.8045 25.04C83.6365 25.04 84.3778 25.2213 85.0285 25.584C85.6792 25.9467 86.1858 26.4587 86.5485 27.12C86.9112 27.7707 87.0925 28.5227 87.0925 29.376ZM85.1885 28.8C85.1778 28.128 84.9378 27.5893 84.4685 27.184C83.9992 26.7787 83.4178 26.576 82.7245 26.576C82.0952 26.576 81.5565 26.7787 81.1085 27.184C80.6605 27.5787 80.3938 28.1173 80.3085 28.8H85.1885ZM99.7478 31.728H95.0918L94.2918 34H92.3878L96.3718 22.864H98.4838L102.468 34H100.548L99.7478 31.728ZM99.2358 30.24L97.4278 25.072L95.6038 30.24H99.2358ZM106.024 26.48C106.333 26.0747 106.755 25.7333 107.288 25.456C107.821 25.1787 108.424 25.04 109.096 25.04C109.864 25.04 110.563 25.232 111.192 25.616C111.832 25.9893 112.333 26.5173 112.696 27.2C113.059 27.8827 113.24 28.6667 113.24 29.552C113.24 30.4373 113.059 31.232 112.696 31.936C112.333 32.6293 111.832 33.1733 111.192 33.568C110.563 33.952 109.864 34.144 109.096 34.144C108.424 34.144 107.827 34.0107 107.304 33.744C106.781 33.4667 106.355 33.1253 106.024 32.72V38.192H104.2V25.184H106.024V26.48ZM111.384 29.552C111.384 28.944 111.256 28.4213 111 27.984C110.755 27.536 110.424 27.2 110.008 26.976C109.603 26.7413 109.165 26.624 108.696 26.624C108.237 26.624 107.8 26.7413 107.384 26.976C106.979 27.2107 106.648 27.552 106.392 28C106.147 28.448 106.024 28.976 106.024 29.584C106.024 30.192 106.147 30.7253 106.392 31.184C106.648 31.632 106.979 31.9733 107.384 32.208C107.8 32.4427 108.237 32.56 108.696 32.56C109.165 32.56 109.603 32.4427 110.008 32.208C110.424 31.9627 110.755 31.6107 111 31.152C111.256 30.6933 111.384 30.16 111.384 29.552ZM116.868 26.48C117.177 26.0747 117.598 25.7333 118.132 25.456C118.665 25.1787 119.268 25.04 119.94 25.04C120.708 25.04 121.406 25.232 122.036 25.616C122.676 25.9893 123.177 26.5173 123.54 27.2C123.902 27.8827 124.084 28.6667 124.084 29.552C124.084 30.4373 123.902 31.232 123.54 31.936C123.177 32.6293 122.676 33.1733 122.036 33.568C121.406 33.952 120.708 34.144 119.94 34.144C119.268 34.144 118.67 34.0107 118.148 33.744C117.625 33.4667 117.198 33.1253 116.868 32.72V38.192H115.044V25.184H116.868V26.48ZM122.228 29.552C122.228 28.944 122.1 28.4213 121.844 27.984C121.598 27.536 121.268 27.2 120.852 26.976C120.446 26.7413 120.009 26.624 119.54 26.624C119.081 26.624 118.644 26.7413 118.228 26.976C117.822 27.2107 117.492 27.552 117.236 28C116.99 28.448 116.868 28.976 116.868 29.584C116.868 30.192 116.99 30.7253 117.236 31.184C117.492 31.632 117.822 31.9733 118.228 32.208C118.644 32.4427 119.081 32.56 119.54 32.56C120.009 32.56 120.446 32.4427 120.852 32.208C121.268 31.9627 121.598 31.6107 121.844 31.152C122.1 30.6933 122.228 30.16 122.228 29.552ZM129.712 34.144C128.88 34.144 128.128 33.9573 127.456 33.584C126.784 33.2 126.256 32.6667 125.872 31.984C125.488 31.2907 125.296 30.4907 125.296 29.584C125.296 28.688 125.493 27.8933 125.888 27.2C126.282 26.5067 126.821 25.9733 127.504 25.6C128.186 25.2267 128.949 25.04 129.792 25.04C130.634 25.04 131.397 25.2267 132.08 25.6C132.762 25.9733 133.301 26.5067 133.696 27.2C134.09 27.8933 134.288 28.688 134.288 29.584C134.288 30.48 134.085 31.2747 133.68 31.968C133.274 32.6613 132.72 33.2 132.016 33.584C131.322 33.9573 130.554 34.144 129.712 34.144ZM129.712 32.56C130.181 32.56 130.618 32.448 131.024 32.224C131.44 32 131.776 31.664 132.032 31.216C132.288 30.768 132.416 30.224 132.416 29.584C132.416 28.944 132.293 28.4053 132.048 27.968C131.802 27.52 131.477 27.184 131.072 26.96C130.666 26.736 130.229 26.624 129.76 26.624C129.29 26.624 128.853 26.736 128.448 26.96C128.053 27.184 127.738 27.52 127.504 27.968C127.269 28.4053 127.152 28.944 127.152 29.584C127.152 30.5333 127.392 31.2693 127.872 31.792C128.362 32.304 128.976 32.56 129.712 32.56ZM137.019 24.016C136.688 24.016 136.411 23.904 136.187 23.68C135.963 23.456 135.851 23.1787 135.851 22.848C135.851 22.5173 135.963 22.24 136.187 22.016C136.411 21.792 136.688 21.68 137.019 21.68C137.339 21.68 137.611 21.792 137.835 22.016C138.059 22.24 138.171 22.5173 138.171 22.848C138.171 23.1787 138.059 23.456 137.835 23.68C137.611 23.904 137.339 24.016 137.019 24.016ZM137.915 25.184V34H136.091V25.184H137.915ZM144.757 25.04C145.451 25.04 146.069 25.184 146.613 25.472C147.168 25.76 147.6 26.1867 147.909 26.752C148.219 27.3173 148.373 28 148.373 28.8V34H146.565V29.072C146.565 28.2827 146.368 27.68 145.973 27.264C145.579 26.8373 145.04 26.624 144.357 26.624C143.675 26.624 143.131 26.8373 142.725 27.264C142.331 27.68 142.133 28.2827 142.133 29.072V34H140.309V25.184H142.133V26.192C142.432 25.8293 142.811 25.5467 143.269 25.344C143.739 25.1413 144.235 25.04 144.757 25.04ZM152.828 26.672V31.552C152.828 31.8827 152.903 32.1227 153.052 32.272C153.212 32.4107 153.479 32.48 153.852 32.48H154.972V34H153.532C152.711 34 152.081 33.808 151.644 33.424C151.207 33.04 150.988 32.416 150.988 31.552V26.672H149.948V25.184H150.988V22.992H152.828V25.184H154.972V26.672H152.828ZM167.325 25.04C168.018 25.04 168.637 25.184 169.181 25.472C169.736 25.76 170.168 26.1867 170.477 26.752C170.797 27.3173 170.957 28 170.957 28.8V34H169.149V29.072C169.149 28.2827 168.952 27.68 168.557 27.264C168.162 26.8373 167.624 26.624 166.941 26.624C166.258 26.624 165.714 26.8373 165.309 27.264C164.914 27.68 164.717 28.2827 164.717 29.072V34H162.909V29.072C162.909 28.2827 162.712 27.68 162.317 27.264C161.922 26.8373 161.384 26.624 160.701 26.624C160.018 26.624 159.474 26.8373 159.069 27.264C158.674 27.68 158.477 28.2827 158.477 29.072V34H156.653V25.184H158.477V26.192C158.776 25.8293 159.154 25.5467 159.613 25.344C160.072 25.1413 160.562 25.04 161.085 25.04C161.789 25.04 162.418 25.1893 162.973 25.488C163.528 25.7867 163.954 26.2187 164.253 26.784C164.52 26.2507 164.936 25.8293 165.501 25.52C166.066 25.2 166.674 25.04 167.325 25.04ZM181.358 29.376C181.358 29.7067 181.337 30.0053 181.294 30.272H174.558C174.611 30.976 174.873 31.5413 175.342 31.968C175.811 32.3947 176.387 32.608 177.07 32.608C178.051 32.608 178.745 32.1973 179.15 31.376H181.118C180.851 32.1867 180.366 32.8533 179.662 33.376C178.969 33.888 178.105 34.144 177.07 34.144C176.227 34.144 175.47 33.9573 174.798 33.584C174.137 33.2 173.614 32.6667 173.23 31.984C172.857 31.2907 172.67 30.4907 172.67 29.584C172.67 28.6773 172.851 27.8827 173.214 27.2C173.587 26.5067 174.105 25.9733 174.766 25.6C175.438 25.2267 176.206 25.04 177.07 25.04C177.902 25.04 178.643 25.2213 179.294 25.584C179.945 25.9467 180.451 26.4587 180.814 27.12C181.177 27.7707 181.358 28.5227 181.358 29.376ZM179.454 28.8C179.443 28.128 179.203 27.5893 178.734 27.184C178.265 26.7787 177.683 26.576 176.99 26.576C176.361 26.576 175.822 26.7787 175.374 27.184C174.926 27.5787 174.659 28.1173 174.574 28.8H179.454ZM187.601 25.04C188.294 25.04 188.913 25.184 189.457 25.472C190.012 25.76 190.444 26.1867 190.753 26.752C191.062 27.3173 191.217 28 191.217 28.8V34H189.409V29.072C189.409 28.2827 189.212 27.68 188.817 27.264C188.422 26.8373 187.884 26.624 187.201 26.624C186.518 26.624 185.974 26.8373 185.569 27.264C185.174 27.68 184.977 28.2827 184.977 29.072V34H183.153V25.184H184.977V26.192C185.276 25.8293 185.654 25.5467 186.113 25.344C186.582 25.1413 187.078 25.04 187.601 25.04ZM195.672 26.672V31.552C195.672 31.8827 195.746 32.1227 195.896 32.272C196.056 32.4107 196.322 32.48 196.696 32.48H197.816V34H196.376C195.554 34 194.925 33.808 194.488 33.424C194.05 33.04 193.832 32.416 193.832 31.552V26.672H192.792V25.184H193.832V22.992H195.672V25.184H197.816V26.672H195.672Z" fill="white"/>
</svg>
