<svg width="49" height="56" viewBox="0 0 49 56" fill="none" xmlns="http://www.w3.org/2000/svg">
<path d="M14.913 25.8846C12.0879 25.8846 9.37848 24.7703 7.38082 22.7867C5.38315 20.8031 4.26087 18.1129 4.26087 15.3077V6.84615C4.26087 6.28512 4.48532 5.74706 4.88486 5.35035C5.28439 4.95364 5.82628 4.73077 6.3913 4.73077H8.52174C9.08676 4.73077 9.62864 4.5079 10.0282 4.11119C10.4277 3.71448 10.6522 3.17642 10.6522 2.61538C10.6522 2.05435 10.4277 1.51629 10.0282 1.11958C9.62864 0.72287 9.08676 0.5 8.52174 0.5H6.3913C4.69622 0.5 3.07057 1.16861 1.87197 2.35875C0.673368 3.54888 0 5.16305 0 6.84615V15.3077C0.0027385 17.6975 0.589644 20.051 1.71031 22.1659C2.83098 24.2809 4.45191 26.0942 6.43391 27.45C8.33815 29.117 9.88246 31.1498 10.9736 33.4258C12.0648 35.7018 12.6802 38.1737 12.7826 40.6923C12.7826 44.6196 14.3538 48.3859 17.1505 51.1629C19.9473 53.9399 23.7405 55.5 27.6956 55.5C31.6508 55.5 35.444 53.9399 38.2407 51.1629C41.0375 48.3859 42.6087 44.6196 42.6087 40.6923V38.2808C44.6169 37.7659 46.3672 36.5414 47.5313 34.8369C48.6954 33.1324 49.1934 31.0648 48.9321 29.0217C48.6707 26.9787 47.6679 25.1004 46.1116 23.7389C44.5553 22.3775 42.5524 21.6264 40.4782 21.6264C38.4041 21.6264 36.4012 22.3775 34.8449 23.7389C33.2886 25.1004 32.2858 26.9787 32.0244 29.0217C31.7631 31.0648 32.2611 33.1324 33.4252 34.8369C34.5893 36.5414 36.3395 37.7659 38.3478 38.2808V40.6923C38.3478 43.4975 37.2255 46.1878 35.2279 48.1713C33.2302 50.1549 30.5208 51.2692 27.6956 51.2692C24.8705 51.2692 22.1611 50.1549 20.1634 48.1713C18.1657 46.1878 17.0435 43.4975 17.0435 40.6923C17.1513 38.1705 17.7733 35.6967 18.8719 33.4206C19.9705 31.1444 21.5227 29.1132 23.4348 27.45C25.4089 26.0895 27.0215 24.2741 28.1346 22.1595C29.2477 20.0448 29.8281 17.6938 29.8261 15.3077V6.84615C29.8261 5.16305 29.1527 3.54888 27.9541 2.35875C26.7555 1.16861 25.1299 0.5 23.4348 0.5H21.3043C20.7393 0.5 20.1974 0.72287 19.7979 1.11958C19.3984 1.51629 19.1739 2.05435 19.1739 2.61538C19.1739 3.17642 19.3984 3.71448 19.7979 4.11119C20.1974 4.5079 20.7393 4.73077 21.3043 4.73077H23.4348C23.9998 4.73077 24.5417 4.95364 24.9412 5.35035C25.3407 5.74706 25.5652 6.28512 25.5652 6.84615V15.3077C25.5652 16.6967 25.2897 18.0721 24.7544 19.3553C24.219 20.6386 23.4344 21.8045 22.4453 22.7867C21.4561 23.7689 20.2818 24.548 18.9894 25.0795C17.6971 25.611 16.3119 25.8846 14.913 25.8846ZM40.4782 34.3462C39.3482 34.3462 38.2644 33.9004 37.4654 33.107C36.6663 32.3136 36.2174 31.2375 36.2174 30.1154C36.2174 28.9933 36.6663 27.9172 37.4654 27.1238C38.2644 26.3304 39.3482 25.8846 40.4782 25.8846C41.6083 25.8846 42.6921 26.3304 43.4911 27.1238C44.2902 27.9172 44.7391 28.9933 44.7391 30.1154C44.7391 31.2375 44.2902 32.3136 43.4911 33.107C42.6921 33.9004 41.6083 34.3462 40.4782 34.3462Z" fill="#FF8B42"/>
</svg>
