<svg width="93" height="93" viewBox="0 0 93 93" fill="none" xmlns="http://www.w3.org/2000/svg">
<g clip-path="url(#clip0_123_269)">
<circle cx="1.5" cy="1.5" r="1.5" fill="#6E27E0"/>
<circle cx="10.5" cy="1.5" r="1.5" fill="#6E27E0"/>
<circle cx="19.5" cy="1.5" r="1.5" fill="#6E27E0"/>
<circle cx="28.5" cy="1.5" r="1.5" fill="#6E27E0"/>
<circle cx="37.5" cy="1.5" r="1.5" fill="#6E27E0"/>
<circle cx="46.5" cy="1.5" r="1.5" fill="#6E27E0"/>
<circle cx="55.5" cy="1.5" r="1.5" fill="#6E27E0"/>
<circle cx="64.5" cy="1.5" r="1.5" fill="#6E27E0"/>
<circle cx="73.5" cy="1.5" r="1.5" fill="#6E27E0"/>
<circle cx="82.5" cy="1.5" r="1.5" fill="#6E27E0"/>
<circle cx="91.5" cy="1.5" r="1.5" fill="#6E27E0"/>
<circle cx="1.5" cy="10.5" r="1.5" fill="#6E27E0"/>
<circle cx="10.5" cy="10.5" r="1.5" fill="#6E27E0"/>
<circle cx="19.5" cy="10.5" r="1.5" fill="#6E27E0"/>
<circle cx="28.5" cy="10.5" r="1.5" fill="#6E27E0"/>
<circle cx="37.5" cy="10.5" r="1.5" fill="#6E27E0"/>
<circle cx="46.5" cy="10.5" r="1.5" fill="#6E27E0"/>
<circle cx="55.5" cy="10.5" r="1.5" fill="#6E27E0"/>
<circle cx="64.5" cy="10.5" r="1.5" fill="#6E27E0"/>
<circle cx="73.5" cy="10.5" r="1.5" fill="#6E27E0"/>
<circle cx="82.5" cy="10.5" r="1.5" fill="#6E27E0"/>
<circle cx="91.5" cy="10.5" r="1.5" fill="#6E27E0"/>
<circle cx="1.5" cy="19.5" r="1.5" fill="#6E27E0"/>
<circle cx="10.5" cy="19.5" r="1.5" fill="#6E27E0"/>
<circle cx="19.5" cy="19.5" r="1.5" fill="#6E27E0"/>
<circle cx="28.5" cy="19.5" r="1.5" fill="#6E27E0"/>
<circle cx="37.5" cy="19.5" r="1.5" fill="#6E27E0"/>
<circle cx="46.5" cy="19.5" r="1.5" fill="#6E27E0"/>
<circle cx="55.5" cy="19.5" r="1.5" fill="#6E27E0"/>
<circle cx="64.5" cy="19.5" r="1.5" fill="#6E27E0"/>
<circle cx="73.5" cy="19.5" r="1.5" fill="#6E27E0"/>
<circle cx="82.5" cy="19.5" r="1.5" fill="#6E27E0"/>
<circle cx="91.5" cy="19.5" r="1.5" fill="#6E27E0"/>
<circle cx="1.5" cy="28.5" r="1.5" fill="#6E27E0"/>
<circle cx="10.5" cy="28.5" r="1.5" fill="#6E27E0"/>
<circle cx="19.5" cy="28.5" r="1.5" fill="#6E27E0"/>
<circle cx="28.5" cy="28.5" r="1.5" fill="#6E27E0"/>
<circle cx="37.5" cy="28.5" r="1.5" fill="#6E27E0"/>
<circle cx="46.5" cy="28.5" r="1.5" fill="#6E27E0"/>
<circle cx="55.5" cy="28.5" r="1.5" fill="#6E27E0"/>
<circle cx="64.5" cy="28.5" r="1.5" fill="#6E27E0"/>
<circle cx="73.5" cy="28.5" r="1.5" fill="#6E27E0"/>
<circle cx="82.5" cy="28.5" r="1.5" fill="#6E27E0"/>
<circle cx="91.5" cy="28.5" r="1.5" fill="#6E27E0"/>
<circle cx="1.5" cy="37.5" r="1.5" fill="#6E27E0"/>
<circle cx="10.5" cy="37.5" r="1.5" fill="#6E27E0"/>
<circle cx="19.5" cy="37.5" r="1.5" fill="#6E27E0"/>
<circle cx="28.5" cy="37.5" r="1.5" fill="#6E27E0"/>
<circle cx="37.5" cy="37.5" r="1.5" fill="#6E27E0"/>
<circle cx="46.5" cy="37.5" r="1.5" fill="#6E27E0"/>
<circle cx="55.5" cy="37.5" r="1.5" fill="#6E27E0"/>
<circle cx="64.5" cy="37.5" r="1.5" fill="#6E27E0"/>
<circle cx="73.5" cy="37.5" r="1.5" fill="#6E27E0"/>
<circle cx="82.5" cy="37.5" r="1.5" fill="#6E27E0"/>
<circle cx="91.5" cy="37.5" r="1.5" fill="#6E27E0"/>
<circle cx="1.5" cy="46.5" r="1.5" fill="#6E27E0"/>
<circle cx="10.5" cy="46.5" r="1.5" fill="#6E27E0"/>
<circle cx="19.5" cy="46.5" r="1.5" fill="#6E27E0"/>
<circle cx="28.5" cy="46.5" r="1.5" fill="#6E27E0"/>
<circle cx="37.5" cy="46.5" r="1.5" fill="#6E27E0"/>
<circle cx="46.5" cy="46.5" r="1.5" fill="#6E27E0"/>
<circle cx="55.5" cy="46.5" r="1.5" fill="#6E27E0"/>
<circle cx="64.5" cy="46.5" r="1.5" fill="#6E27E0"/>
<circle cx="73.5" cy="46.5" r="1.5" fill="#6E27E0"/>
<circle cx="82.5" cy="46.5" r="1.5" fill="#6E27E0"/>
<circle cx="91.5" cy="46.5" r="1.5" fill="#6E27E0"/>
<circle cx="1.5" cy="55.5" r="1.5" fill="#6E27E0"/>
<circle cx="10.5" cy="55.5" r="1.5" fill="#6E27E0"/>
<circle cx="19.5" cy="55.5" r="1.5" fill="#6E27E0"/>
<circle cx="28.5" cy="55.5" r="1.5" fill="#6E27E0"/>
<circle cx="37.5" cy="55.5" r="1.5" fill="#6E27E0"/>
<circle cx="46.5" cy="55.5" r="1.5" fill="#6E27E0"/>
<circle cx="55.5" cy="55.5" r="1.5" fill="#6E27E0"/>
<circle cx="64.5" cy="55.5" r="1.5" fill="#6E27E0"/>
<circle cx="73.5" cy="55.5" r="1.5" fill="#6E27E0"/>
<circle cx="82.5" cy="55.5" r="1.5" fill="#6E27E0"/>
<circle cx="91.5" cy="55.5" r="1.5" fill="#6E27E0"/>
<circle cx="1.5" cy="64.5" r="1.5" fill="#6E27E0"/>
<circle cx="10.5" cy="64.5" r="1.5" fill="#6E27E0"/>
<circle cx="19.5" cy="64.5" r="1.5" fill="#6E27E0"/>
<circle cx="28.5" cy="64.5" r="1.5" fill="#6E27E0"/>
<circle cx="37.5" cy="64.5" r="1.5" fill="#6E27E0"/>
<circle cx="46.5" cy="64.5" r="1.5" fill="#6E27E0"/>
<circle cx="55.5" cy="64.5" r="1.5" fill="#6E27E0"/>
<circle cx="64.5" cy="64.5" r="1.5" fill="#6E27E0"/>
<circle cx="73.5" cy="64.5" r="1.5" fill="#6E27E0"/>
<circle cx="82.5" cy="64.5" r="1.5" fill="#6E27E0"/>
<circle cx="91.5" cy="64.5" r="1.5" fill="#6E27E0"/>
<circle cx="1.5" cy="73.5" r="1.5" fill="#6E27E0"/>
<circle cx="10.5" cy="73.5" r="1.5" fill="#6E27E0"/>
<circle cx="19.5" cy="73.5" r="1.5" fill="#6E27E0"/>
<circle cx="28.5" cy="73.5" r="1.5" fill="#6E27E0"/>
<circle cx="37.5" cy="73.5" r="1.5" fill="#6E27E0"/>
<circle cx="46.5" cy="73.5" r="1.5" fill="#6E27E0"/>
<circle cx="55.5" cy="73.5" r="1.5" fill="#6E27E0"/>
<circle cx="64.5" cy="73.5" r="1.5" fill="#6E27E0"/>
<circle cx="73.5" cy="73.5" r="1.5" fill="#6E27E0"/>
<circle cx="82.5" cy="73.5" r="1.5" fill="#6E27E0"/>
<circle cx="91.5" cy="73.5" r="1.5" fill="#6E27E0"/>
<circle cx="1.5" cy="82.5" r="1.5" fill="#6E27E0"/>
<circle cx="10.5" cy="82.5" r="1.5" fill="#6E27E0"/>
<circle cx="19.5" cy="82.5" r="1.5" fill="#6E27E0"/>
<circle cx="28.5" cy="82.5" r="1.5" fill="#6E27E0"/>
<circle cx="37.5" cy="82.5" r="1.5" fill="#6E27E0"/>
<circle cx="46.5" cy="82.5" r="1.5" fill="#6E27E0"/>
<circle cx="55.5" cy="82.5" r="1.5" fill="#6E27E0"/>
<circle cx="64.5" cy="82.5" r="1.5" fill="#6E27E0"/>
<circle cx="73.5" cy="82.5" r="1.5" fill="#6E27E0"/>
<circle cx="82.5" cy="82.5" r="1.5" fill="#6E27E0"/>
<circle cx="91.5" cy="82.5" r="1.5" fill="#6E27E0"/>
<circle cx="1.5" cy="91.5" r="1.5" fill="#6E27E0"/>
<circle cx="10.5" cy="91.5" r="1.5" fill="#6E27E0"/>
<circle cx="19.5" cy="91.5" r="1.5" fill="#6E27E0"/>
<circle cx="28.5" cy="91.5" r="1.5" fill="#6E27E0"/>
<circle cx="37.5" cy="91.5" r="1.5" fill="#6E27E0"/>
<circle cx="46.5" cy="91.5" r="1.5" fill="#6E27E0"/>
<circle cx="55.5" cy="91.5" r="1.5" fill="#6E27E0"/>
<circle cx="64.5" cy="91.5" r="1.5" fill="#6E27E0"/>
<circle cx="73.5" cy="91.5" r="1.5" fill="#6E27E0"/>
<circle cx="82.5" cy="91.5" r="1.5" fill="#6E27E0"/>
<circle cx="91.5" cy="91.5" r="1.5" fill="#6E27E0"/>
</g>
<defs>
<clipPath id="clip0_123_269">
<rect width="93" height="93" fill="white"/>
</clipPath>
</defs>
</svg>
